<svg id="Capa_1" data-name="Capa 1" xmlns="http://www.w3.org/2000/svg" viewBox="0 0 512 506"><defs><style>.cls-1{fill:#136ad5;}</style></defs><title>money</title><path class="cls-1" d="M342,290.27c12.13,0,22,8.54,22,19a10,10,0,0,0,20,0c0-18.33-13.65-33.73-32-37.92v-5.2a10,10,0,0,0-20,0v5.2c-18.35,4.18-32,19.59-32,37.92,0,21.53,18.84,39,42,39,12.13,0,22,8.54,22,19s-9.87,19-22,19-22-8.54-22-19a10,10,0,0,0-20,0c0,18.33,13.65,33.73,32,37.92v4.32a10,10,0,0,0,20,0v-4.32c18.35-4.18,32-19.59,32-37.92,0-21.53-18.84-39-42-39-12.13,0-22-8.54-22-19S329.82,290.27,342,290.27Z" transform="translate(0 -3)"/><path class="cls-1" d="M451.48,268.88a130.29,130.29,0,0,0-53.22-47.1,10,10,0,1,0-8.67,18,110.09,110.09,0,0,1,49.58,150.79A10,10,0,1,0,456.83,400,130.14,130.14,0,0,0,451.48,268.88Z" transform="translate(0 -3)"/><path class="cls-1" d="M357,229h0.63a10,10,0,0,0,0-20H357A10,10,0,0,0,357,229Z" transform="translate(0 -3)"/><path class="cls-1" d="M294.41,438.2a110.09,110.09,0,0,1-49.58-150.79A10,10,0,1,0,227.17,278a130.06,130.06,0,0,0,58.58,178.21A10,10,0,1,0,294.41,438.2Z" transform="translate(0 -3)"/><path class="cls-1" d="M327,449h-0.58a10,10,0,0,0-.09,20H327A10,10,0,0,0,327,449Z" transform="translate(0 -3)"/><path class="cls-1" d="M387.41,175.17A45.9,45.9,0,0,0,383,167h26a46,46,0,0,0,0-92H328.92A46,46,0,0,0,291,3H46a46,46,0,0,0,0,92h80.08a45.87,45.87,0,0,0,0,52H100a46,46,0,0,0-28.58,82,45.92,45.92,0,0,0,0,72,45.92,45.92,0,0,0,0,72A46,46,0,0,0,100,455H217.85A169.55,169.55,0,0,0,342,509c93.74,0,170-76.26,170-170C512,261,459.17,195.08,387.41,175.17ZM20,49A26,26,0,0,1,46,23H291a26,26,0,0,1,0,52H46A26,26,0,0,1,20,49Zm118,72a26,26,0,0,1,26-26H409a26,26,0,0,1,0,52H164A26,26,0,0,1,138,121ZM74,193a26,26,0,0,1,26-26H345a26,26,0,0,1,11.35,2.61c-4.73-.4-9.51-0.61-14.34-0.61a169.47,169.47,0,0,0-120.3,50H100A26,26,0,0,1,74,193Zm0,72a26,26,0,0,1,26-26H204.61a169.52,169.52,0,0,0-25.7,52H100A26,26,0,0,1,74,265Zm0,72a26,26,0,0,1,26-26h74.32a170.14,170.14,0,0,0-.62,52H100A26,26,0,0,1,74,337Zm26,98a26,26,0,0,1,0-52h77.79a169.33,169.33,0,0,0,24,52H100Zm242,54c-82.71,0-150-67.29-150-150s67.29-150,150-150,150,67.29,150,150S424.71,489,342,489Z" transform="translate(0 -3)"/></svg>