<svg id="Layer_1" data-name="Layer 1" xmlns="http://www.w3.org/2000/svg" viewBox="0 0 512 512"><defs><style>.cls-1{fill:#fff;}</style></defs><title>team</title><path class="cls-1" d="M454.89,430.4L446.48,427a256,256,0,0,0,21.18-315,8,8,0,0,0-1.28-1.83,256.72,256.72,0,0,0-44.6-49.23,8.08,8.08,0,0,0-10.48,12.32,240.71,240.71,0,0,1,36.59,38.9c-17.11,6.69-37.65,12.35-60.58,16.83a288.87,288.87,0,0,0-23.26-52.31c-12.33-21.39-26.51-38.6-42-51.27a238.42,238.42,0,0,1,68,31.73,8.08,8.08,0,0,0,9-13.4A256,256,0,0,0,65.62,427.14l-8.31,3.25c-3.06,1.1-29.07,11.48-29.07,44.55v29A8.09,8.09,0,0,0,36.33,512h119a8,8,0,0,0,1.15-.09,8,8,0,0,0,1.15.09h32.89a8.08,8.08,0,0,0,0-16.17H165.7V467.68C165.7,438,189,429.43,190,429.1l0.37-.14,39.37-15.42,0.26,0.28L250.9,434.2a8.09,8.09,0,0,0,5.64,2.29h0.13a8.08,8.08,0,0,0,5.69-2.47l20.09-20.84,39.32,15.77,0.38,0.14c1,0.35,24.33,8.9,24.33,38.6v28.15H215.78a8.08,8.08,0,1,0,0,16.17H475.84a8.13,8.13,0,0,0,8.08-8.14V474.94C483.93,442,458.11,431.57,454.89,430.4Zm-32.43-13v-4.6a42.27,42.27,0,0,0,18.79-23.31A22.84,22.84,0,0,0,453.88,349V334.64a54.55,54.55,0,0,0-47.58-54c0.31-5.48.52-11,.62-16.53h88.76a238.69,238.69,0,0,1-65.25,156.51Zm-73.75-50.68a6.69,6.69,0,0,1,3.08-5.63v11.25A6.69,6.69,0,0,1,348.71,366.72ZM261.26,379H252a34.46,34.46,0,0,1-34.42-34.42V316c12.9-1.19,38.41-5.67,57-22.4,3.93,7.44,10.53,16.08,21,20.57v30.38A34.46,34.46,0,0,1,261.26,379Zm-67.72-46.64a10.41,10.41,0,0,1,7.91-10.08v20.17A10.41,10.41,0,0,1,193.54,332.34Zm10.62-84.42h-82.9c0.66-35.49,5.67-69.64,14.6-100.55a729.65,729.65,0,0,0,112.06,9.44v69.6A66,66,0,0,0,205.06,248,8.2,8.2,0,0,0,204.16,247.92ZM106.78,418.25a42.24,42.24,0,0,0,5.05.31h7.37a42.16,42.16,0,0,0,5-.31v4.48l-9,9.35-8.46-8.24v-5.58h0Zm12.42-15.85h-7.37a25.93,25.93,0,0,1-25.91-25.91V355.11c10.53-1.14,29.18-4.83,43.55-16.83,3.22,5.52,8.2,11.49,15.63,15v23.24A25.93,25.93,0,0,1,119.21,402.39ZM66.68,366.72a6.7,6.7,0,0,1,3.08-5.63v11.25A6.69,6.69,0,0,1,66.68,366.72Zm94.6-5.45a6.67,6.67,0,0,1,0,10.9v-10.9Zm-5.6-21.42-0.47-.13-0.21-.06c-11.27-2.56-15-17.61-15-17.72a8.08,8.08,0,0,0-14.43-3c-14.65,20.25-47.31,20.47-47.7,20.47h0c-0.28,0-.55,0-0.82,0l-0.25,0-0.55.08-0.34.09-0.43.11-0.26.09v-5.27a38.36,38.36,0,0,1,38.31-38.31h3.87a38.35,38.35,0,0,1,38.31,38.31v5.2h0ZM16.32,247.92A238.32,238.32,0,0,1,54.69,125.79c18.22,7.44,40.38,13.73,65.21,18.66-9.07,32-14.16,67.07-14.82,103.47H16.32ZM308.9,292.22v9.88l-0.17-.12-0.36-.27-0.29-.19-0.37-.22-0.35-.18L307,301l-0.43-.17-0.3-.11-0.5-.14-0.22-.06C290.2,297,285.34,277,285.3,276.78a8.08,8.08,0,0,0-14.44-3c-18.93,26.17-60.75,26.44-61.3,26.44h0c-0.28,0-.55,0-0.82,0l-0.25,0-0.55.08-0.34.09-0.43.11-0.38.14-0.35.13-0.43.21-0.27.13c-0.15.08-.28,0.17-0.42,0.25l-0.24.15-0.38.28-0.24.18-0.22.19V292.22a50,50,0,0,1,49.94-49.94H259A50,50,0,0,1,308.9,292.22Zm-61-275.6v124a716.69,716.69,0,0,1-107.15-8.82A271.31,271.31,0,0,1,162,84.73C185.48,43.92,215.74,20.05,247.92,16.62Zm63.94,305.72a10.38,10.38,0,0,1,0,20v-20ZM308,247.92a66,66,0,0,0-43.89-21.59V156.81c39.67-.39,78-3.69,112.06-9.43,8.92,30.91,13.93,65,14.6,100.53H308Zm87.56,48.41h3.87a38.35,38.35,0,0,1,38.31,38.31v5.2l-0.46-.13-0.22-.06c-11.27-2.56-15-17.6-15-17.72a8.08,8.08,0,0,0-14.44-3c-14.64,20.24-47.27,20.47-47.7,20.47h0c-0.28,0-.55,0-0.82,0l-0.26,0-0.54.08-0.36.09-0.41.11-0.26.09v-5.27A38.36,38.36,0,0,1,395.53,296.33Zm47.78,64.94a6.67,6.67,0,0,1,0,10.89V361.27ZM368,355.1c10.53-1.14,29.18-4.82,43.55-16.83,3.22,5.52,8.2,11.49,15.63,15v23.24a25.93,25.93,0,0,1-25.91,25.9h-7.37A25.93,25.93,0,0,1,368,376.49V355.1h0Zm20.86,63.15a42.22,42.22,0,0,0,5,.31h7.37a42.21,42.21,0,0,0,5-.31v4.48l-9,9.35-8.46-8.24v-5.59Zm68.56-292.5a239.4,239.4,0,0,1,38.3,122.17H406.91c-0.66-36.39-5.74-71.49-14.81-103.45C417,139.53,439.12,133.22,457.38,125.75ZM350,84.73a271.2,271.2,0,0,1,21.19,47.11,716.49,716.49,0,0,1-107.15,8.79v-124C296.26,20.05,326.52,43.92,350,84.73ZM189.81,25.46c-15.42,12.66-29.57,29.85-41.87,51.2A288.87,288.87,0,0,0,124.69,129c-22.9-4.47-43.41-10.12-60.49-16.78A240.63,240.63,0,0,1,189.81,25.46ZM16.32,264.08h88.76c0.1,5.57.32,11.13,0.62,16.64A54.56,54.56,0,0,0,59,334.64v14.3A22.83,22.83,0,0,0,71.83,389.5,42.27,42.27,0,0,0,90.61,412.8v4.55l-8.83,3.46A238.6,238.6,0,0,1,16.32,264.08ZM98.7,495.83H44.42V474.94c0-22.54,17.62-29.07,18.3-29.31l0.37-.14,30.49-11.94,16.2,15.78a8.08,8.08,0,0,0,5.64,2.29h0.13a8.07,8.07,0,0,0,5.69-2.47l15.3-15.88,18.92,7.59a60.37,60.37,0,0,0-5.94,26.83v28.15H98.7Zm85.92-82a51.54,51.54,0,0,0-19.73,13.37l-24.47-9.81v-4.6a42.27,42.27,0,0,0,18.79-23.31A22.83,22.83,0,0,0,171.84,349V334.64a54.54,54.54,0,0,0-50-54.28c-0.31-5.39-.52-10.83-0.62-16.28h73.06a65.7,65.7,0,0,0-6.3,28.14v18.86a26.55,26.55,0,0,0,15.52,47.81,50.81,50.81,0,0,0,24,29.9V397Zm71.73,3.1L243.7,404.62V394.44a50.67,50.67,0,0,0,8.34.7h9.22a50.75,50.75,0,0,0,8.34-.7v8.75Zm71.23-3.09-41.81-16.77v-8.29a50.81,50.81,0,0,0,24-29.91,26.55,26.55,0,0,0,15.29-47.71V292.22a65.69,65.69,0,0,0-6.3-28.14h72c-0.1,5.47-.32,10.93-0.63,16.35a54.55,54.55,0,0,0-49.06,54.21v14.31a22.83,22.83,0,0,0,12.81,40.55,42.27,42.27,0,0,0,18.79,23.29v4.55l-25.32,9.91A51.59,51.59,0,0,0,327.58,413.85Zm140.18,82H362.64V467.68a60.38,60.38,0,0,0-5.89-26.74l18.88-7.39,16.2,15.78a8.08,8.08,0,0,0,5.64,2.29h0.13a8.08,8.08,0,0,0,5.69-2.47l15.31-15.88L449,445.47l0.37,0.14c0.75,0.27,18.37,6.8,18.37,29.34v20.89h0Z" transform="translate(0 0)"/></svg>