<svg id="Capa_1" data-name="Capa 1" xmlns="http://www.w3.org/2000/svg" viewBox="0 0 422.92 422.92"><defs><style>.cls-1{fill:#fff;}</style></defs><title>avatar</title><path class="cls-1" d="M75,217.82C14.55,278.25,14.55,376.59,75,437s158.77,60.43,219.2,0c55.64-55.64,60.05-143.41,13.23-204.15L371.26,169l53,53,28.28-28.28-53-53,51.62-51.62L422.88,60.84l-51.62,51.62-53-53L289.94,87.71l53,53-63.84,63.84C218.39,157.77,130.62,162.17,75,217.82ZM265.9,408.74a115,115,0,1,1,0-162.63A115.13,115.13,0,0,1,265.9,408.74Z" transform="translate(-29.65 -59.42)"/></svg>