<svg id="Layer_1" data-name="Layer 1" xmlns="http://www.w3.org/2000/svg" viewBox="0 0 512 343.02"><defs><style>.cls-1{fill:#136ad5;}</style></defs><title>laptop</title><path class="cls-1" d="M502.08,349.2h-20.3V117.8a33.35,33.35,0,0,0-33.31-33.31h-385A33.35,33.35,0,0,0,30.21,117.8V349.2H9.92A9.92,9.92,0,0,0,0,359.12v19.47a49,49,0,0,0,48.92,48.92H463.07A49,49,0,0,0,512,378.59V359.12A9.91,9.91,0,0,0,502.08,349.2ZM52.25,117.8a11.28,11.28,0,0,1,11.27-11.27h385a11.28,11.28,0,0,1,11.27,11.27V349.2H310.55a9.7,9.7,0,0,0-2.15.18,9.92,9.92,0,0,0-8,9.74,15.2,15.2,0,0,1-15.18,15.18H226.82a15.2,15.2,0,0,1-15.18-15.18,9.94,9.94,0,0,0-10.15-9.91H52.25V117.8ZM492.17,378.59a29.12,29.12,0,0,1-29.09,29.09H48.92a29.12,29.12,0,0,1-29.09-29.09V369h173.4a35.08,35.08,0,0,0,33.58,25.09h58.36A35.08,35.08,0,0,0,318.76,369h173.4v9.55h0Z" transform="translate(0 -84.49)"/></svg>