<svg id="Layer_1" data-name="Layer 1" xmlns="http://www.w3.org/2000/svg" viewBox="0 0 541 541"><defs><style>.cls-1{fill:#366ab3;}</style></defs><title>network</title><path class="cls-1" d="M846,124a59,59,0,0,0-51.87,87.18l-96.68,96.68a78.25,78.25,0,0,0-96.35,0L525.62,232.4a38.47,38.47,0,0,0,5.62-19.88,39.36,39.36,0,1,0-39.39,39.33,38.86,38.86,0,0,0,19.89-5.57l75.44,75.46a78.16,78.16,0,0,0,0,96.35L462.61,542.67a58.41,58.41,0,1,0,12.3,15.51L601.07,432a77.89,77.89,0,0,0,38.37,15.95v99.95a59,59,0,1,0,19.65,0V447.91A77.89,77.89,0,0,0,697.46,432l75.41,75.46a38.9,38.9,0,0,0-5.57,19.88A39.33,39.33,0,1,0,806.64,488a38.47,38.47,0,0,0-19.83,5.57l-75.46-75.46a78.11,78.11,0,0,0,0-96.35l95-95A59,59,0,1,0,846,124h0ZM472.21,212.51a19.67,19.67,0,1,1,19.64,19.7,19.66,19.66,0,0,1-19.64-19.7h0ZM423,625.67a39.36,39.36,0,1,1,39.33-39.33A39.38,39.38,0,0,1,423,625.67h0ZM688.58,606a39.33,39.33,0,1,1-39.33-39.33A39.35,39.35,0,0,1,688.58,606h0Zm-39.33-177a59,59,0,1,1,59-59,59.12,59.12,0,0,1-59,59h0ZM826.33,527.3a19.7,19.7,0,1,1-19.7-19.7,19.67,19.67,0,0,1,19.7,19.7h0ZM846,222.36A39.33,39.33,0,1,1,885.3,183,39.36,39.36,0,0,1,846,222.36h0Zm0,0" transform="translate(-364 -124)"/></svg>