<svg id="Layer_1" data-name="Layer 1" xmlns="http://www.w3.org/2000/svg" viewBox="0 0 955.59 911.36"><defs><style>.cls-1{fill:#fff;}</style></defs><title>rating</title><path class="cls-1" d="M571.94-44.59a17.81,17.81,0,0,1,15.14-20.14,17.81,17.81,0,0,1,20.15,15.15l28.21,199.49A17.8,17.8,0,0,1,620.29,170a17.13,17.13,0,0,1-2.52.19,17.82,17.82,0,0,1-17.61-15.33Zm469.73,68.22-13.95,14a17.82,17.82,0,0,0,25.2,25.2l14-14,14,14a17.82,17.82,0,1,0,25.2-25.2l-14-14,14-14a17.81,17.81,0,0,0,0-25.19,17.81,17.81,0,0,0-25.2,0l-14,14-14-14a17.82,17.82,0,0,0-25.2,0,17.83,17.83,0,0,0,0,25.19ZM524.6,255.11a17.82,17.82,0,0,0,28.3-21.68L395.59,28.1A17.82,17.82,0,1,0,367.3,49.77ZM232.13,88.67L238,93.2a17.82,17.82,0,1,0,21.72-28.26l-5.9-4.53a17.82,17.82,0,0,0-21.71,28.26h0ZM217.08,309.52a17.82,17.82,0,0,0-4.68,35.33L394.63,369a17.82,17.82,0,1,0,4.68-35.32Zm73.14-176.2L463.43,266.44a17.82,17.82,0,0,0,21.72-28.26L311.93,105.06a17.82,17.82,0,1,0-21.72,28.26h0ZM673.46,171.9a18.81,18.81,0,0,0,2.43.17,17.82,17.82,0,0,0,17.63-15.43L720.81-44.58a17.83,17.83,0,0,0-15.27-20.06,17.82,17.82,0,0,0-20.05,15.27L658.2,151.85a17.81,17.81,0,0,0,15.26,20h0Zm406.23,251.84-244.4-32.37a17.82,17.82,0,0,0-4.68,35.33L1075,459.07a17.82,17.82,0,0,0,4.68-35.33h0Zm15.42-98.22a17.83,17.83,0,0,0-20-15.36l-183.37,24A17.82,17.82,0,0,0,894,369.66a17.37,17.37,0,0,0,2.34-.16l183.37-24a17.83,17.83,0,0,0,15.36-20h0Zm-114.54-220L808.05,237.73A17.82,17.82,0,1,0,829.72,266l172.52-132.17a17.82,17.82,0,1,0-21.68-28.3h0ZM932.9,10.8a17.75,17.75,0,0,0,10.86,3.69,17.79,17.79,0,0,0,14.13-7l1.57-2a17.83,17.83,0,0,0-3.26-25,17.82,17.82,0,0,0-25,3.26l-1.57,2a17.84,17.84,0,0,0,3.26,25h0Zm31.72-41.3a17.75,17.75,0,0,0,10.86,3.7,17.78,17.78,0,0,0,14.13-6.95l1.66-2.16a17.82,17.82,0,0,0-3.26-25,17.81,17.81,0,0,0-25,3.25l-1.66,2.16a17.83,17.83,0,0,0,3.25,25h0Zm-221,287.87a17.82,17.82,0,0,0,25-3.27L925.28,50.19A17.82,17.82,0,1,0,897,28.47l-156.7,203.9a17.82,17.82,0,0,0,3.26,25h0ZM205,45.3a17.83,17.83,0,0,0-3.28-25l-3.09-2.38a17.82,17.82,0,1,0-21.72,28.26l3.1,2.39a17.82,17.82,0,0,0,25-3.28h0ZM759.71,523a17.82,17.82,0,0,1-27.18,19.1l-83.47-55.67-90,56a17.82,17.82,0,0,1-26.57-20l27.15-96.59-81-68.27a17.81,17.81,0,0,1,10.76-31.43l100.24-4L629.54,224a17.82,17.82,0,0,1,33.22.52l34.81,94.1,105.69,7.61A17.82,17.82,0,0,1,813,357.95l-78.73,62.18ZM703.2,399.28l51.7-40.84-71.34-5.13a17.82,17.82,0,0,1-15.43-11.59l-22.87-61.8-26.93,66.26a17.81,17.81,0,0,1-15.79,11.09l-65.84,2.65L591.4,406a17.84,17.84,0,0,1,5.68,18.46l-17.83,63.43L640,450.11a17.81,17.81,0,0,1,19.29.31L714.1,487l-17.17-69.43a17.83,17.83,0,0,1,6.27-18.26h0ZM998,814.43a17.82,17.82,0,0,0-28.28,21.68l2.57,3.36a17.82,17.82,0,1,0,28.29-21.68ZM217.35,258.55l14-14,13.95,14a17.82,17.82,0,0,0,25.19-25.2l-14-14,14-14a17.81,17.81,0,0,0-25.19-25.19l-14,13.95-14-13.95a17.82,17.82,0,1,0-25.2,25.19l14,14-14,14a17.82,17.82,0,0,0,25.2,25.2h0ZM963.74,769.66l-2.58-3.36A17.82,17.82,0,1,0,932.88,788l2.57,3.37a17.82,17.82,0,0,0,28.29-21.69h0Zm142.58-206.14,14-14a17.82,17.82,0,1,0-25.2-25.19l-13.95,13.95-14-13.95a17.82,17.82,0,1,0-25.2,25.19l14,14-14,14a17.82,17.82,0,0,0,25.2,25.19l14-13.95,13.95,13.95a17.82,17.82,0,0,0,25.2-25.19Zm-104.45,71.77L835.82,507.66a17.82,17.82,0,0,0-21.72,28.26L980.15,663.55a17.82,17.82,0,0,0,21.72-28.26h0ZM836.18,603.18a17.82,17.82,0,0,0-28.29,21.68l88.6,115.65a17.82,17.82,0,0,0,28.3-21.68ZM481.91,510a17.83,17.83,0,0,0-25-3.31l-167.09,128A17.82,17.82,0,0,0,311.52,663L478.6,535a17.83,17.83,0,0,0,3.31-25h0Zm-181.13,236a17.82,17.82,0,0,0-25.2,0l-13.95,14-14-14a17.82,17.82,0,1,0-25.2,25.19l14,14-14,13.95a17.82,17.82,0,1,0,25.19,25.2l14-14,13.95,14a17.82,17.82,0,0,0,25.19-25.2l-14-13.95,14-14a17.82,17.82,0,0,0,0-25.2h0ZM475.11,406.68a17.85,17.85,0,0,0-20-15.36L212.34,423.1a17.82,17.82,0,0,0,2.29,35.49,17.51,17.51,0,0,0,2.34-.15l242.78-31.78a17.83,17.83,0,0,0,15.36-20h0Zm218.4,209a17.82,17.82,0,1,0-35.31,4.79l27.29,201.23a17.82,17.82,0,0,0,17.63,15.43,18.58,18.58,0,0,0,2.42-.17,17.83,17.83,0,0,0,15.27-20.06Zm-73.22-13.41a17.82,17.82,0,0,0-20.14,15.15L571.94,816.88A17.82,17.82,0,0,0,587.08,837a17.48,17.48,0,0,0,2.52.18,17.82,17.82,0,0,0,17.61-15.32l28.22-199.5a17.81,17.81,0,0,0-15.14-20.14h0Zm-139.73-2.6a17.82,17.82,0,0,0-25,3.28L366.8,718.41a17.82,17.82,0,0,0,28.26,21.71l88.77-115.5a17.83,17.83,0,0,0-3.27-25h0Zm0,0" transform="translate(-169.9 64.91)"/></svg>