<svg id="Layer_1" data-name="Layer 1" xmlns="http://www.w3.org/2000/svg" viewBox="0 0 762.97 762.97"><defs><style>.cls-1{fill:#366ab3;}</style></defs><title>office</title><path class="cls-1" d="M814.2,721.33H458.14a12.72,12.72,0,0,0-12.71,12.72v25.43a12.72,12.72,0,1,0,25.43,0V746.76H814.2a12.71,12.71,0,0,0,0-25.43h0Zm0,0" transform="translate(-267.4 -9.23)"/><path class="cls-1" d="M547.16,327.13a12.72,12.72,0,0,0,12.71,12.71h50.87a12.71,12.71,0,0,0,12.71-12.71v-76.3a12.72,12.72,0,0,0-12.71-12.72H559.87a12.72,12.72,0,0,0-12.71,12.72v76.3Zm25.43-63.58H598v50.86H572.59V263.55Zm0,0" transform="translate(-267.4 -9.23)"/><path class="cls-1" d="M432.71,161.83H280.12a12.72,12.72,0,0,0-12.72,12.71V428.86a12.71,12.71,0,0,0,25.43,0V187.26H432.71a12.71,12.71,0,1,0,0-25.43h0Zm0,0" transform="translate(-267.4 -9.23)"/><path class="cls-1" d="M877.78,632.32A12.72,12.72,0,0,0,890.5,645h50.86a12.72,12.72,0,0,0,12.72-12.71V556a12.72,12.72,0,0,0-12.72-12.72H890.5A12.72,12.72,0,0,0,877.78,556v76.3Zm25.43-63.58h25.44V619.6H903.21V568.74Zm0,0" transform="translate(-267.4 -9.23)"/><path class="cls-1" d="M331,467c-62.85,0-63.58,163.66-63.58,165.31a63.69,63.69,0,0,0,50.86,62.29v64.87a12.72,12.72,0,1,0,25.44,0V694.61a63.69,63.69,0,0,0,50.86-62.29c0-1.65-.72-165.31-63.58-165.31h0Zm0,203.46a38.2,38.2,0,0,1-38.15-38.15c0-63.35,17-139.88,38.15-139.88S369.13,569,369.13,632.32A38.2,38.2,0,0,1,331,670.47h0Zm0,0" transform="translate(-267.4 -9.23)"/><path class="cls-1" d="M407.28,390.71H356.41a12.72,12.72,0,0,0-12.71,12.71v25.44a12.71,12.71,0,0,0,25.43,0V416.14h25.43v63.58a12.71,12.71,0,1,0,25.43,0V403.43a12.71,12.71,0,0,0-12.71-12.72h0Zm0,0" transform="translate(-267.4 -9.23)"/><path class="cls-1" d="M890.5,339.85h50.86a12.72,12.72,0,0,0,12.72-12.71v-76.3a12.72,12.72,0,0,0-12.72-12.72H890.5a12.72,12.72,0,0,0-12.72,12.72v76.3a12.72,12.72,0,0,0,12.72,12.71h0Zm12.71-76.29h25.44v50.86H903.21V263.55Zm0,0" transform="translate(-267.4 -9.23)"/><path class="cls-1" d="M407.28,238.12H356.41a12.72,12.72,0,0,0-12.71,12.72v76.3a12.72,12.72,0,0,0,12.71,12.71h50.87A12.72,12.72,0,0,0,420,327.13v-76.3a12.71,12.71,0,0,0-12.71-12.72h0Zm-12.72,76.3H369.13V263.55h25.43v50.86Zm0,0" transform="translate(-267.4 -9.23)"/><path class="cls-1" d="M674.32,327.13A12.72,12.72,0,0,0,687,339.85H737.9a12.72,12.72,0,0,0,12.72-12.71v-76.3a12.72,12.72,0,0,0-12.72-12.72H687a12.72,12.72,0,0,0-12.72,12.72v76.3Zm25.43-63.58h25.44v50.86H699.75V263.55Zm0,0" transform="translate(-267.4 -9.23)"/><path class="cls-1" d="M1017.65,161.83H865.06a12.71,12.71,0,1,0,0,25.43h139.87v511a36.47,36.47,0,0,0-19.25-1.77,50.79,50.79,0,0,0-88.66,0,37.7,37.7,0,0,0-6.53-.57,38.15,38.15,0,1,0,0,76.3H992.22a38.2,38.2,0,0,0,38.15-38.15V174.54a12.72,12.72,0,0,0-12.72-12.71h0ZM992.22,746.76H890.5a12.71,12.71,0,1,1,0-25.43,12.57,12.57,0,0,1,6.89,2.07,12.72,12.72,0,0,0,19.28-7.82,25.33,25.33,0,0,1,49.39,0,12.72,12.72,0,0,0,19.28,7.82c8.27-5.34,19.6,1.19,19.6,10.65a12.73,12.73,0,0,1-12.71,12.71h0Zm0,0" transform="translate(-267.4 -9.23)"/><path class="cls-1" d="M687,187.26H737.9a12.72,12.72,0,0,0,12.72-12.72V98.25A12.72,12.72,0,0,0,737.9,85.53H687a12.72,12.72,0,0,0-12.72,12.72v76.29A12.72,12.72,0,0,0,687,187.26h0ZM699.75,111h25.44v50.87H699.75V111Zm0,0" transform="translate(-267.4 -9.23)"/><path class="cls-1" d="M674.32,479.72A12.72,12.72,0,0,0,687,492.44H737.9a12.72,12.72,0,0,0,12.72-12.72v-76.3a12.72,12.72,0,0,0-12.72-12.71H687a12.72,12.72,0,0,0-12.72,12.71v76.3Zm25.43-63.58h25.44V467H699.75V416.14Zm0,0" transform="translate(-267.4 -9.23)"/><path class="cls-1" d="M559.87,187.26h50.87a12.72,12.72,0,0,0,12.71-12.72V98.25a12.72,12.72,0,0,0-12.71-12.72H559.87a12.72,12.72,0,0,0-12.71,12.72v76.29a12.72,12.72,0,0,0,12.71,12.72h0ZM572.59,111H598v50.87H572.59V111Zm0,0" transform="translate(-267.4 -9.23)"/><path class="cls-1" d="M639.86,623.29a12.72,12.72,0,1,0,18.06,0,13.36,13.36,0,0,0-18.06,0h0Zm0,0" transform="translate(-267.4 -9.23)"/><path class="cls-1" d="M547.16,479.72a12.72,12.72,0,0,0,12.71,12.72h50.87a12.72,12.72,0,0,0,12.71-12.72v-76.3a12.71,12.71,0,0,0-12.71-12.71H559.87a12.72,12.72,0,0,0-12.71,12.71v76.3Zm25.43-63.58H598V467H572.59V416.14Zm0,0" transform="translate(-267.4 -9.23)"/><path class="cls-1" d="M521.73,556a12.72,12.72,0,0,0,12.71,12.71h38.15V683.18a12.71,12.71,0,1,0,25.43,0V568.73H699.75V683.18a12.72,12.72,0,1,0,25.43,0V568.73h38.15a12.71,12.71,0,1,0,0-25.43H534.44A12.72,12.72,0,0,0,521.73,556h0Zm0,0" transform="translate(-267.4 -9.23)"/><path class="cls-1" d="M877.78,479.72a12.72,12.72,0,0,0,12.72,12.72h50.86a12.72,12.72,0,0,0,12.72-12.72v-76.3a12.72,12.72,0,0,0-12.72-12.71H890.5a12.72,12.72,0,0,0-12.72,12.71v76.3Zm25.43-63.58h25.44V467H903.21V416.14Zm0,0" transform="translate(-267.4 -9.23)"/><path class="cls-1" d="M814.2,9.23H483.58a12.72,12.72,0,0,0-12.72,12.72V683.18a12.71,12.71,0,1,0,25.43,0V34.66H801.48V683.18a12.71,12.71,0,1,0,25.43,0V21.95A12.71,12.71,0,0,0,814.2,9.23h0Zm0,0" transform="translate(-267.4 -9.23)"/></svg>