<svg id="Layer_1" data-name="Layer 1" xmlns="http://www.w3.org/2000/svg" viewBox="0 0 35.2 43.2"><defs><style>.cls-1{fill:#366ab3;}</style></defs><title>lock</title><path class="cls-1" d="M652.4,395.09V390.6c0-6.4-5.74-11.6-12.8-11.6s-12.8,5.2-12.8,11.6v4.49a5.79,5.79,0,0,0-4.8,5.7v15.63a5.79,5.79,0,0,0,5.78,5.78h23.64a5.79,5.79,0,0,0,5.78-5.78V400.78a5.79,5.79,0,0,0-4.8-5.69h0Zm-24-4.49c0-5.52,5-10,11.2-10s11.2,4.48,11.2,10V395H628.4v-4.4Zm27.2,25.82a4.19,4.19,0,0,1-4.18,4.18H627.78a4.19,4.19,0,0,1-4.18-4.18V400.78a4.18,4.18,0,0,1,4.18-4.18h23.64a4.19,4.19,0,0,1,4.18,4.18v15.64Zm0,0" transform="translate(-622 -379)"/><path class="cls-1" d="M639.6,401.4a3.21,3.21,0,0,0-3.2,3.2v4.8a3.2,3.2,0,1,0,6.4,0v-4.8a3.21,3.21,0,0,0-3.2-3.2h0Zm1.6,8a1.6,1.6,0,1,1-3.2,0v-4.8a1.6,1.6,0,1,1,3.2,0v4.8Zm0,0" transform="translate(-622 -379)"/></svg>