<svg id="Layer_1" data-name="Layer 1" xmlns="http://www.w3.org/2000/svg" viewBox="0 0 512 504.38"><defs><style>.cls-1{fill:#fff;}</style></defs><title>favorites</title><path class="cls-1" d="M375.09,437.79a33.76,33.76,0,0,1-15.74-3.91L259.15,381.2a6.75,6.75,0,0,0-6.29,0l-100.2,52.68a33.77,33.77,0,0,1-49-35.6l19.14-111.58a6.76,6.76,0,0,0-1.94-6l-81.06-79a33.76,33.76,0,0,1,18.71-57.59l112-16.28a6.75,6.75,0,0,0,5.09-3.69l50.1-101.52a33.76,33.76,0,0,1,60.56,0l50.1,101.51a6.75,6.75,0,0,0,5.08,3.69l112,16.28a33.76,33.76,0,0,1,18.71,57.59l-81.06,79a6.76,6.76,0,0,0-1.94,6l19.14,111.58A33.83,33.83,0,0,1,375.09,437.79ZM256,353.41a33.76,33.76,0,0,1,15.71,3.88L371.92,410a6.75,6.75,0,0,0,9.8-7.12L362.58,291.28a33.76,33.76,0,0,1,9.71-29.89l81.06-79a6.75,6.75,0,0,0-3.74-11.52l-112-16.28a33.75,33.75,0,0,1-25.42-18.47L262.06,34.59h0a6.75,6.75,0,0,0-12.11,0L199.85,136.1a33.76,33.76,0,0,1-25.42,18.47l-112,16.28a6.75,6.75,0,0,0-3.74,11.52l81.06,79a33.76,33.76,0,0,1,9.71,29.89L130.29,402.85a6.75,6.75,0,0,0,9.8,7.12l100.2-52.68A33.77,33.77,0,0,1,256,353.41Z" transform="translate(0 -3.81)"/><path class="cls-1" d="M391.5,66.79a13.51,13.51,0,0,1-10.92-21.44l14.34-19.73a13.51,13.51,0,0,1,21.85,15.88L402.43,61.22A13.49,13.49,0,0,1,391.5,66.79Z" transform="translate(0 -3.81)"/><path class="cls-1" d="M120.45,66.71a13.49,13.49,0,0,1-10.94-5.57L95.17,41.41A13.51,13.51,0,1,1,117,25.53l14.34,19.73A13.51,13.51,0,0,1,120.45,66.71Z" transform="translate(0 -3.81)"/><path class="cls-1" d="M13.51,332.05A13.51,13.51,0,0,1,9.34,305.7l23.2-7.54a13.51,13.51,0,1,1,8.35,25.69l-23.2,7.54A13.49,13.49,0,0,1,13.51,332.05Z" transform="translate(0 -3.81)"/><path class="cls-1" d="M256,508.19a13.51,13.51,0,0,1-13.51-13.51V470.29a13.51,13.51,0,0,1,27,0v24.39A13.51,13.51,0,0,1,256,508.19Z" transform="translate(0 -3.81)"/><path class="cls-1" d="M498.49,332.07a13.52,13.52,0,0,1-4.18-.66l-23.2-7.54a13.51,13.51,0,0,1,8.35-25.69l23.2,7.54A13.51,13.51,0,0,1,498.49,332.07Z" transform="translate(0 -3.81)"/></svg>