<svg id="Layer_1" data-name="Layer 1" xmlns="http://www.w3.org/2000/svg" xmlns:xlink="http://www.w3.org/1999/xlink" viewBox="0 0 41.01 41.01"><defs><style>.cls-1{fill:url(#radial-gradient);}.cls-2{fill:#fff;}</style><radialGradient id="radial-gradient" cx="12.01" cy="44.19" r="54.34" gradientUnits="userSpaceOnUse"><stop offset="0.1" stop-color="#ffd879"/><stop offset="0.15" stop-color="#fccb76"/><stop offset="0.26" stop-color="#f5aa6c"/><stop offset="0.4" stop-color="#e9755e"/><stop offset="0.45" stop-color="#e45f58"/><stop offset="0.68" stop-color="#d22a9c"/><stop offset="1" stop-color="#6968df"/></radialGradient></defs><title>instagram</title><g id="_Group_" data-name="&lt;Group&gt;"><path id="_Path_" data-name="&lt;Path&gt;" class="cls-1" d="M8.42,0H32.59A8.42,8.42,0,0,1,41,8.42V32.58A8.43,8.43,0,0,1,32.58,41H8.42A8.42,8.42,0,0,1,0,32.59V8.42A8.42,8.42,0,0,1,8.42,0Z"/><g id="_Group_2" data-name="&lt;Group&gt;"><path id="_Compound_Path_" data-name="&lt;Compound Path&gt;" class="cls-2" d="M1083.09,5491h-11.87a9.53,9.53,0,0,0-9.53,9.53v11.87a9.53,9.53,0,0,0,9.53,9.53h11.87a9.53,9.53,0,0,0,9.53-9.53V5500.5A9.53,9.53,0,0,0,1083.09,5491Zm6.56,20.26a7.7,7.7,0,0,1-7.7,7.7h-9.59a7.7,7.7,0,0,1-7.7-7.7v-9.59a7.7,7.7,0,0,1,7.7-7.7h9.59a7.7,7.7,0,0,1,7.7,7.7v9.59Z" transform="translate(-1056.65 -5485.93)"/><path id="_Compound_Path_2" data-name="&lt;Compound Path&gt;" class="cls-2" d="M1077.57,5498.34a8.15,8.15,0,1,0,8.15,8.15A8.15,8.15,0,0,0,1077.57,5498.34Zm0,13a4.9,4.9,0,1,1,4.9-4.9A4.9,4.9,0,0,1,1077.57,5511.39Z" transform="translate(-1056.65 -5485.93)"/><circle id="_Path_2" data-name="&lt;Path&gt;" class="cls-2" cx="28.5" cy="12.29" r="2.07"/></g></g></svg>