<svg id="Layer_1" data-name="Layer 1" xmlns="http://www.w3.org/2000/svg" viewBox="0 0 41.01 41.01"><defs><style>.cls-1{fill:#007bb5;}.cls-2{fill:#fff;}</style></defs><title>linkedin</title><g id="_Group_" data-name="&lt;Group&gt;"><rect id="_Path_" data-name="&lt;Path&gt;" class="cls-1" width="41.01" height="41.01" rx="8.42" ry="8.42"/><g id="_Group_2" data-name="&lt;Group&gt;"><path id="_Compound_Path_" data-name="&lt;Compound Path&gt;" class="cls-2" d="M1119.65,5501.46h6.16v19.8h-6.16v-19.8Zm3.08-9.84a3.57,3.57,0,1,1-3.57,3.57,3.57,3.57,0,0,1,3.57-3.57" transform="translate(-1113.5 -5485.93)"/><path id="_Path_2" data-name="&lt;Path&gt;" class="cls-2" d="M1129.66,5501.46h5.9v2.71h0.08a6.46,6.46,0,0,1,5.82-3.2c6.23,0,7.38,4.1,7.38,9.43v10.86h-6.15v-9.63c0-2.3,0-5.25-3.2-5.25s-3.69,2.5-3.69,5.09v9.79h-6.15v-19.8Z" transform="translate(-1113.5 -5485.93)"/></g></g></svg>