<svg id="Layer_1" data-name="Layer 1" xmlns="http://www.w3.org/2000/svg" viewBox="0 0 41.01 41.01"><defs><style>.cls-1{fill:#1da1f2;}.cls-2{fill:#fff;}</style></defs><title>twitter</title><g id="_Group_" data-name="&lt;Group&gt;"><rect id="_Path_" data-name="&lt;Path&gt;" class="cls-1" width="41.01" height="41.01" rx="8.43" ry="8.43"/><path id="_Path_2" data-name="&lt;Path&gt;" class="cls-2" d="M1188.11,5518.32c10.78,0,16.67-8.93,16.67-16.67,0-.25,0-0.51,0-0.76a11.88,11.88,0,0,0,2.92-3,11.74,11.74,0,0,1-3.36.92,5.9,5.9,0,0,0,2.58-3.24,11.79,11.79,0,0,1-3.72,1.42,5.86,5.86,0,0,0-10.13,4,6,6,0,0,0,.15,1.34,16.65,16.65,0,0,1-12.08-6.12,5.86,5.86,0,0,0,1.82,7.82,5.81,5.81,0,0,1-2.65-.73s0,0,0,.07a5.86,5.86,0,0,0,4.7,5.74,5.87,5.87,0,0,1-1.54.21,5.79,5.79,0,0,1-1.1-.11,5.87,5.87,0,0,0,5.47,4.07,11.75,11.75,0,0,1-7.28,2.51,11.88,11.88,0,0,1-1.4-.08,16.57,16.57,0,0,0,9,2.63" transform="translate(-1172.49 -5485.93)"/></g></svg>